<svg version="1.1" id="Capa_1" xmlns="http://www.w3.org/2000/svg" xmlns:xlink="http://www.w3.org/1999/xlink" x="0px" y="0px"
	 viewBox="0 0 333.543 333.543" style="enable-background:new 0 0 333.543 333.543;" xml:space="preserve" fill="#bababa">
<path id="XMLID_651_" d="M158.188,242.609H22V48.356l35.808,52.076c2.053,2.984,5.442,4.768,9.064,4.768h161.534
	c3.622,0,7.013-1.783,9.064-4.768l35.805-52.078v82.493c0,6.075,4.925,11,11,11s11-4.925,11-11V25.881c0-6.075-4.925-11-11-11
	h-8.736c-0.102-0.001-0.203-0.001-0.305,0H20.035c-0.1-0.001-0.198-0.001-0.3,0H11c-6.075,0-11,4.925-11,11v227.728
	c0,6.075,4.925,11,11,11h147.188c6.075,0,11-4.925,11-11S164.264,242.609,158.188,242.609z M254.465,36.881L222.62,83.2H72.658
	l-31.85-46.319H254.465z M330.722,182.622c-2.086-2.319-5.06-3.644-8.179-3.644H286.12c0.694-1.442,1.084-3.06,1.084-4.768
	c0-6.075-4.925-11-11-11h-35.245c-6.075,0-11,4.925-11,11c0,1.708,0.39,3.326,1.084,4.768h-36.419c-3.119,0-6.092,1.324-8.179,3.644
	c-2.086,2.319-3.089,5.416-2.76,8.518l12.491,117.685c0.594,5.594,5.313,9.839,10.938,9.839h102.934
	c5.626,0,10.345-4.245,10.938-9.839l12.494-117.685C333.811,188.037,332.808,184.941,330.722,182.622z M300.155,296.662H217.01
	l-10.156-95.685h103.46L300.155,296.662z M226.678,233.296c-0.574-6.048,3.863-11.417,9.911-11.991
	c6.055-0.582,11.416,3.863,11.991,9.911l3.879,40.845c0.574,6.048-3.863,11.417-9.911,11.991c-0.354,0.034-0.705,0.05-1.053,0.05
	c-5.607,0-10.397-4.266-10.938-9.961L226.678,233.296z M264.706,272.061l3.88-40.845c0.575-6.048,5.951-10.483,11.991-9.911
	c6.048,0.575,10.485,5.943,9.91,11.991l-3.88,40.845c-0.54,5.694-5.331,9.961-10.938,9.961c-0.349,0-0.699-0.017-1.053-0.05
	C268.569,283.477,264.132,278.109,264.706,272.061z"/>
<g>
</g>
<g>
</g>
<g>
</g>
<g>
</g>
<g>
</g>
<g>
</g>
<g>
</g>
<g>
</g>
<g>
</g>
<g>
</g>
<g>
</g>
<g>
</g>
<g>
</g>
<g>
</g>
<g>
</g>
</svg>