<svg version="1.1" id="Capa_1" xmlns="http://www.w3.org/2000/svg" xmlns:xlink="http://www.w3.org/1999/xlink" x="0px" y="0px"
	 viewBox="0 0 319.662 319.662" style="enable-background:new 0 0 319.662 319.662;" xml:space="preserve" fill="#bababa">
<path id="XMLID_156_" d="M319.662,257.782v8.324c0,15.451-12.57,28.021-28.021,28.021h-81.947c-15.451,0-28.021-12.57-28.021-28.021
	v-46.363c0-15.451,12.57-28.021,28.021-28.021h72.409l-5.61-5.61c-4.296-4.295-4.296-11.26,0-15.556s11.26-4.296,15.556,0
	l24.281,24.28c2.055,1.999,3.332,4.793,3.332,7.887c0,3.094-1.277,5.889-3.333,7.888l-24.28,24.278
	c-4.295,4.295-11.261,4.295-15.556,0c-4.296-4.296-4.295-11.261,0-15.556l5.61-5.61h-72.409c-3.264,0-6.021,2.757-6.021,6.021
	v46.363c0,3.264,2.757,6.021,6.021,6.021h81.947c3.264,0,6.021-2.757,6.021-6.021v-8.324c0-6.075,4.925-11,11-11
	S319.662,251.706,319.662,257.782z M164.738,264.265c0,6.075-4.925,11-11,11H11c-6.075,0-11-4.925-11-11V36.537
	c0-6.075,4.925-11,11-11h8.733c0.102-0.001,0.203-0.001,0.305,0h255.195c0.101-0.001,0.203-0.001,0.304,0h8.735
	c6.075,0,11,4.925,11,11v100.795c0,6.075-4.925,11-11,11s-11-4.925-11-11v-78.32l-35.804,52.076
	c-2.052,2.985-5.442,4.768-9.064,4.768H66.871c-3.622,0-7.012-1.783-9.064-4.768L22,59.012v194.253h131.738
	C159.813,253.265,164.738,258.189,164.738,264.265z M40.809,47.537l31.848,46.319h149.962l31.846-46.319H40.809z"/>
<g>
</g>
<g>
</g>
<g>
</g>
<g>
</g>
<g>
</g>
<g>
</g>
<g>
</g>
<g>
</g>
<g>
</g>
<g>
</g>
<g>
</g>
<g>
</g>
<g>
</g>
<g>
</g>
<g>
</g>
</svg>