<svg version="1.1" id="Capa_1" xmlns="http://www.w3.org/2000/svg" xmlns:xlink="http://www.w3.org/1999/xlink" x="0px" y="0px"
	 viewBox="0 0 343.814 343.814" style="enable-background:new 0 0 343.814 343.814;" xml:space="preserve" fill="#bababa">
<path id="XMLID_665_" d="M152,253.937H22V59.686l35.805,52.074c2.052,2.984,5.442,4.768,9.064,4.768h161.534
	c3.622,0,7.012-1.783,9.064-4.768l35.806-52.077v96.113c0,6.075,4.925,11,11,11s11-4.925,11-11V37.21c0-6.075-4.925-11-11-11h-8.742
	c-0.096-0.001-0.195-0.001-0.291,0H20.032c-0.098-0.001-0.195-0.001-0.293,0H11c-6.075,0-11,4.925-11,11v227.727
	c0,6.075,4.925,11,11,11h141c6.075,0,11-4.925,11-11S158.075,253.937,152,253.937z M254.464,48.21l-31.847,46.318H72.655
	L40.808,48.21H254.464z M339.136,234.078l-90.461-63.525c-3.357-2.358-7.752-2.651-11.394-0.759
	c-3.643,1.893-5.928,5.656-5.928,9.761v30.668h-40.312c-6.075,0-11,4.925-11,11v43.716c0,2.917,1.159,5.715,3.222,7.778
	c2.063,2.063,4.861,3.222,7.779,3.222l40.311-0.002v30.668c0,4.104,2.285,7.868,5.928,9.761c1.597,0.83,3.337,1.239,5.071,1.239
	c2.223,0,4.436-0.673,6.322-1.998l90.461-63.525c2.933-2.059,4.679-5.418,4.679-9.002S342.068,236.138,339.136,234.078z
	 M253.354,285.439v-20.502c0-2.917-1.159-5.715-3.222-7.778c-2.063-2.063-4.861-3.222-7.779-3.222l-40.311,0.002v-21.716h40.312
	c6.075,0,11-4.925,11-11v-20.502l60.32,42.359L253.354,285.439z"/>
<g>
</g>
<g>
</g>
<g>
</g>
<g>
</g>
<g>
</g>
<g>
</g>
<g>
</g>
<g>
</g>
<g>
</g>
<g>
</g>
<g>
</g>
<g>
</g>
<g>
</g>
<g>
</g>
<g>
</g>
</svg>